<?xml version="1.0" encoding="iso-8859-1"?>
<!-- Generator: Adobe Illustrator 19.0.0, SVG Export Plug-In . SVG Version: 6.00 Build 0)  -->
<svg version="1.1" id="Layer_1" xmlns="http://www.w3.org/2000/svg" xmlns:xlink="http://www.w3.org/1999/xlink" x="0px" y="0px"
	 viewBox="0 0 512 512" style="enable-background:new 0 0 512 512;" xml:space="preserve">
<path style="fill:#F4F4F4;" d="M4.276,106.355v278.981c0,13.261,10.789,24.05,24.05,24.05h344.184
	c13.261,0,24.05-10.789,24.05-24.05V106.355H4.276z"/>
<path style="fill:#FF8C78;" d="M372.509,42.756H28.326c-13.282,0-24.05,10.768-24.05,24.05v51.841H396.56V66.806
	C396.56,53.524,385.791,42.756,372.509,42.756z"/>
<path style="fill:#E9E9E9;" d="M4.276,106.355v278.981c0,13.261,10.789,24.05,24.05,24.05h285.073L99.158,106.355H4.276z"/>
<path style="fill:#DF7A6E;" d="M54.193,42.756H28.326c-13.282,0-24.05,10.767-24.05,24.05v51.841h103.573L54.193,42.756z"/>
<g>
	<path style="fill:#E9E9E9;" d="M132.008,0H97.804c-4.428,0-8.017,3.588-8.017,8.017v76.96c0,4.428,3.588,8.017,8.017,8.017h34.205
		c4.428,0,8.017-3.588,8.017-8.017V8.017C140.025,3.588,136.437,0,132.008,0z"/>
	<path style="fill:#E9E9E9;" d="M217.52,0h-34.205c-4.428,0-8.017,3.588-8.017,8.017v76.96c0,4.428,3.588,8.017,8.017,8.017h34.205
		c4.428,0,8.017-3.588,8.017-8.017V8.017C225.537,3.588,221.948,0,217.52,0z"/>
	<path style="fill:#E9E9E9;" d="M303.031,0h-34.205c-4.428,0-8.017,3.588-8.017,8.017v76.96c0,4.428,3.588,8.017,8.017,8.017h34.205
		c4.428,0,8.017-3.588,8.017-8.017V8.017C311.048,3.588,307.46,0,303.031,0z"/>
</g>
<path style="fill:#6DDAE1;" d="M272.412,214.625l-68.409-34.205c-2.256-1.13-4.915-1.13-7.171,0l-68.409,34.205
	c-2.715,1.359-4.432,4.133-4.432,7.17V332.96c0,4.428,3.588,8.017,8.017,8.017h51.307c4.428,0,8.017-3.588,8.017-8.017v-51.841
	h18.171v51.841c0,4.428,3.588,8.017,8.017,8.017h51.307c4.428,0,8.017-3.588,8.017-8.017V221.795
	C276.843,218.759,275.128,215.984,272.412,214.625z"/>
<g>
	<path style="fill:#4FC4D4;" d="M128.423,214.625c-2.715,1.359-4.432,4.133-4.432,7.17V332.96c0,4.428,3.588,8.017,8.017,8.017
		h18.171v-137.23L128.423,214.625z"/>
	<path style="fill:#4FC4D4;" d="M294.473,212.711c-1.298,0.001-2.612-0.315-3.832-0.98l-90.223-49.213l-90.223,49.213
		c-3.889,2.122-8.756,0.687-10.877-3.198c-2.12-3.888-0.688-8.756,3.198-10.877l94.063-51.307c2.394-1.305,5.284-1.305,7.679,0
		l94.063,51.307c3.886,2.12,5.319,6.99,3.198,10.877C300.063,211.199,297.312,212.711,294.473,212.711z"/>
</g>
<path style="fill:#FFD791;" d="M388.543,273.637c-65.717,0-119.182,53.465-119.182,119.182S322.826,512,388.543,512
	s119.182-53.465,119.182-119.182S454.259,273.637,388.543,273.637z"/>
<path style="fill:#D3D2D2;" d="M388.543,307.841c-46.857,0-84.977,38.12-84.977,84.977s38.12,84.977,84.977,84.977
	s84.977-38.12,84.977-84.977S435.4,307.841,388.543,307.841z"/>
<path style="fill:#F4F4F4;" d="M388.543,324.409c-37.721,0-68.409,30.688-68.409,68.409s30.688,68.409,68.409,68.409
	s68.409-30.688,68.409-68.409S426.264,324.409,388.543,324.409z"/>
<path style="fill:#DF7A6E;" d="M388.546,409.386c-2.074,0-4.126-0.803-5.673-2.347l-34.205-34.205
	c-3.131-3.132-3.131-8.207,0-11.338c3.132-3.13,8.207-3.13,11.338,0l29.778,29.778l37.389-22.433
	c3.797-2.277,8.719-1.048,10.999,2.75c2.278,3.797,1.046,8.72-2.75,10.999l-42.756,25.653
	C391.387,409.011,389.961,409.386,388.546,409.386z"/>
<g>
</g>
<g>
</g>
<g>
</g>
<g>
</g>
<g>
</g>
<g>
</g>
<g>
</g>
<g>
</g>
<g>
</g>
<g>
</g>
<g>
</g>
<g>
</g>
<g>
</g>
<g>
</g>
<g>
</g>
</svg>
